<svg width="100" height="100" viewBox="0 0 100 100" fill="none" xmlns="http://www.w3.org/2000/svg">
<path d="M50 0.5C56.8448 0.500004 63.2769 1.80086 69.3018 4.39941C75.3362 7.00212 80.5748 10.5285 85.0215 14.9785C89.4683 19.4287 92.9971 24.6669 95.6064 30.6982C98.2114 36.7193 99.5099 43.1513 99.5 49.999C99.4901 56.8477 98.1894 63.2809 95.6006 69.3027C93.008 75.3333 89.4812 80.5716 85.0215 85.0215C80.5612 89.4718 75.3229 93.0005 69.3018 95.6064C63.2908 98.208 56.858 99.5066 50 99.5C43.1485 99.5 36.7162 98.199 30.6982 95.6006C24.6705 92.9979 19.432 89.4716 14.9785 85.0215C10.5252 80.5714 6.99875 75.3327 4.39941 69.3018C1.80423 63.2803 0.503334 56.8482 0.5 50C0.496698 43.152 1.79766 36.7195 4.39941 30.6982C7.00546 24.6671 10.5318 19.4286 14.9785 14.9785C19.4252 10.5285 24.6638 7.00212 30.6982 4.39941C36.7231 1.80087 43.1552 0.5 50 0.5ZM50 9.5C38.7783 9.5 29.2122 13.449 21.3311 21.3369C13.4503 29.2245 9.50337 38.7885 9.5 50C9.49667 61.2119 13.446 70.778 21.3369 78.6689C28.9812 86.313 38.1956 90.2564 48.9541 90.4893L50 90.5C61.2148 90.5 70.7803 86.553 78.668 78.6689C86.5558 70.7845 90.5033 61.2184 90.5 50C90.4966 38.7818 86.55 29.2155 78.6689 21.3311C70.7878 13.4466 61.2216 9.50001 50 9.5ZM49.999 25.5C51.2866 25.5031 52.3449 25.9349 53.207 26.7939C54.0682 27.6522 54.5 28.7095 54.5 30V48.207L69.6465 63.3535C70.4602 64.1672 70.875 65.2024 70.875 66.5C70.875 67.7976 70.4602 68.8328 69.6465 69.6465C68.8328 70.4602 67.7976 70.875 66.5 70.875C65.2024 70.875 64.1672 70.4602 63.3535 69.6465L46.8525 53.1455L46.6875 52.9736C46.3164 52.5676 46.0354 52.1199 45.8398 51.6299C45.6131 51.0614 45.5 50.4774 45.5 49.875V30C45.5 28.7169 45.9312 27.6588 46.7939 26.793C47.6558 25.9281 48.7132 25.497 49.999 25.5Z" fill="black" stroke="black"/>
</svg>
