<svg width="100" height="100" viewBox="0 0 100 100" fill="none" xmlns="http://www.w3.org/2000/svg">
<path d="M33.55 28.5322L45 17.0293V64.9913C45 66.3177 45.5268 67.5898 46.4645 68.5277C47.4021 69.4656 48.6739 69.9925 50 69.9925C51.3261 69.9925 52.5979 69.4656 53.5355 68.5277C54.4732 67.5898 55 66.3177 55 64.9913V17.0293L66.45 28.5322C66.9148 29.0009 67.4678 29.373 68.0771 29.6269C68.6864 29.8808 69.3399 30.0115 70 30.0115C70.6601 30.0115 71.3136 29.8808 71.9229 29.6269C72.5322 29.373 73.0852 29.0009 73.55 28.5322C74.0186 28.0673 74.3906 27.5141 74.6445 26.9047C74.8983 26.2952 75.029 25.6415 75.029 24.9813C75.029 24.3211 74.8983 23.6674 74.6445 23.0579C74.3906 22.4485 74.0186 21.8953 73.55 21.4304L53.55 1.42542C53.0745 0.970107 52.5138 0.613192 51.9 0.375161C50.6827 -0.125054 49.3173 -0.125054 48.1 0.375161C47.4862 0.613192 46.9255 0.970107 46.45 1.42542L26.45 21.4304C25.9838 21.8967 25.614 22.4503 25.3617 23.0596C25.1094 23.6688 24.9795 24.3218 24.9795 24.9813C24.9795 25.6408 25.1094 26.2938 25.3617 26.903C25.614 27.5123 25.9838 28.0659 26.45 28.5322C26.9162 28.9985 27.4696 29.3684 28.0788 29.6208C28.6879 29.8731 29.3407 30.003 30 30.003C30.6593 30.003 31.3121 29.8731 31.9212 29.6208C32.5304 29.3684 33.0838 28.9985 33.55 28.5322ZM95 59.99C93.6739 59.99 92.4021 60.5169 91.4645 61.4549C90.5268 62.3928 90 63.6649 90 64.9913V84.9963C90 86.3227 89.4732 87.5948 88.5355 88.5327C87.5979 89.4706 86.3261 89.9975 85 89.9975H15C13.6739 89.9975 12.4021 89.4706 11.4645 88.5327C10.5268 87.5948 10 86.3227 10 84.9963V64.9913C10 63.6649 9.47322 62.3928 8.53553 61.4549C7.59785 60.5169 6.32608 59.99 5 59.99C3.67392 59.99 2.40215 60.5169 1.46447 61.4549C0.526784 62.3928 0 63.6649 0 64.9913V84.9963C0 88.9755 1.58035 92.7918 4.3934 95.6055C7.20644 98.4193 11.0218 100 15 100H85C88.9782 100 92.7936 98.4193 95.6066 95.6055C98.4196 92.7918 100 88.9755 100 84.9963V64.9913C100 63.6649 99.4732 62.3928 98.5355 61.4549C97.5979 60.5169 96.3261 59.99 95 59.99Z" fill="black"/>
</svg>
