<svg width="107" height="100" viewBox="0 0 107 100" fill="none" xmlns="http://www.w3.org/2000/svg">
<path d="M91.9445 0.000247574C90.8444 0.0029941 89.7375 0.289549 88.7286 0.779804C90.8027 18.8236 89.9845 33.5299 78.8241 53.8436C93.4573 37.0212 97.1666 12.9639 95.9554 1.58088C94.7614 0.46258 93.3588 -0.00341434 91.9447 1.88224e-05L91.9445 0.000247574ZM71.0817 11.158C48.4546 11.711 49.194 78.4766 0 90.5354C46.618 119.375 136.886 77.5572 97.1508 28.9816C96.9393 29.6202 96.7238 30.2601 96.5068 30.9058C98.9827 42.9946 98.0675 56.132 91.8223 70.4727C92.729 61.2618 92.5821 52.4468 91.1566 44.0017C89.4744 47.2701 87.3286 50.4405 85.1337 53.6287C85.4447 62.7875 83.7311 72.4532 79.2392 82.7678C79.9595 75.4421 79.8323 68.3771 79.1101 61.5108C76.1686 64.8508 72.8849 68.0622 69.2054 71.0019C68.334 76.8101 66.6935 82.8252 63.9846 89.0475C64.4705 84.1028 64.5484 79.2186 64.3852 74.4781C56.2287 80.0185 46.543 84.4489 34.8067 86.9091C44.6894 81.3703 52.5719 75.6559 59.0284 69.8005C54.7812 68.9171 50.4095 68.3403 46.0436 67.9338C51.5978 66.5301 57.3196 65.8994 63.0466 66.0598C66.9945 62.0276 70.2933 57.9747 72.9511 53.7649C65.5868 52.442 58.1336 52.0538 50.5991 52.5564C59.2497 48.3753 67.8683 46.9162 76.4319 47.4777C78.6447 42.9294 80.1584 38.2264 81.2516 33.4452C74.739 32.8302 67.6451 34.3721 59.5656 36.3844C66.8613 29.7104 74.7442 26.8087 82.5845 25.9563C82.992 22.644 83.2116 19.3289 83.2503 15.9072C78.734 12.6984 74.9269 11.2294 71.6193 11.158C71.4383 11.1539 71.2604 11.1534 71.0821 11.158H71.0817Z" fill="black"/>
</svg>
