<svg width="99" height="104" viewBox="0 0 99 104" fill="none" xmlns="http://www.w3.org/2000/svg">
<path d="M43.9459 99.5C41.8188 99.5 39.9879 98.7875 38.4533 97.3625C36.9186 95.9375 35.9921 94.1958 35.6738 92.1375L35.0445 87.4999C34.7767 85.5259 33.416 83.9157 31.7174 82.875C30.0224 81.8364 27.9363 81.5657 26.1044 82.3377L21.7295 84.1813C19.76 85.0521 17.7904 85.1313 15.8209 84.4188C13.8514 83.7063 12.3151 82.4396 11.2122 80.6188L5.65809 70.8812C4.55515 69.0604 4.24002 67.1208 4.71271 65.0625C5.1854 63.0042 6.24895 61.3021 7.90336 59.9562L12.8827 56.1799C13.6752 55.5789 14.0483 54.5953 14.0483 53.6007V50.3945C14.0483 49.4029 13.6766 48.4222 12.8865 47.823L7.90336 44.0438C6.24895 42.6979 5.1854 40.9958 4.71271 38.9375C4.24002 36.8792 4.55515 34.9396 5.65809 33.1187L11.2122 23.3813C12.3151 21.5604 13.8514 20.2938 15.8209 19.5813C17.7904 18.8688 19.76 18.9479 21.7295 19.8187L26.0603 21.6438C27.9191 22.4271 30.034 22.145 31.7742 21.125C33.4719 20.1298 34.7728 18.5025 35.0374 16.5525L35.6738 11.8625C35.989 9.80417 36.9154 8.0625 38.4533 6.6375C39.9911 5.2125 41.822 4.5 43.9459 4.5H55.0541C57.1812 4.5 59.0137 5.2125 60.5515 6.6375C62.0893 8.0625 63.0142 9.80417 63.3262 11.8625L63.9549 16.496C64.2231 18.4725 65.585 20.0855 67.2873 21.125C68.981 22.1592 71.0633 22.4345 72.8921 21.6638L77.2705 19.8187C79.24 18.9479 81.2096 18.8688 83.1791 19.5813C85.1486 20.2938 86.6849 21.5604 87.7878 23.3813L93.3419 33.1187C94.4449 34.9396 94.76 36.8792 94.2873 38.9375C93.8146 40.9958 92.751 42.6979 91.0966 44.0438L86.1173 47.8201C85.3248 48.4211 84.9517 49.4047 84.9517 50.3993V53.6007C84.9517 54.5824 85.2303 55.5968 86.0125 56.19L90.9785 59.9562C92.6329 61.3021 93.6964 63.0042 94.1691 65.0625C94.6418 67.1208 94.3267 69.0604 93.2237 70.8812L87.5515 80.6188C86.4485 82.4396 84.9123 83.7063 82.9428 84.4188C80.9732 85.1313 79.0037 85.0521 77.0341 84.1813L72.9245 82.3917C71.0785 81.5879 68.9628 81.8568 67.2258 82.875C65.5281 83.8702 64.2272 85.4975 63.9626 87.4475L63.3262 92.1375C63.011 94.1958 62.0861 95.9375 60.5515 97.3625C59.0168 98.7875 57.1843 99.5 55.0541 99.5H43.9459ZM49.7363 68.625C54.3057 68.625 58.2054 67.0021 61.4354 63.7563C64.6654 60.5104 66.2805 56.5917 66.2805 52C66.2805 47.4083 64.6654 43.4896 61.4354 40.2437C58.2054 36.9979 54.3057 35.375 49.7363 35.375C45.0882 35.375 41.1681 36.9979 37.9758 40.2437C34.7836 43.4896 33.1891 47.4083 33.1922 52C33.1954 56.5917 34.7915 60.5104 37.9806 63.7563C41.1696 67.0021 45.0882 68.625 49.7363 68.625Z" stroke="black" stroke-width="9"/>
</svg>
