<svg width="108" height="108" viewBox="0 0 108 108" fill="none" xmlns="http://www.w3.org/2000/svg">
<path d="M4 54C4 67.2608 9.26784 79.9785 18.6447 89.3553C28.0215 98.7322 40.7392 104 54 104V4C40.7392 4 28.0215 9.26784 18.6447 18.6447C9.26784 28.0215 4 40.7392 4 54Z" fill="black"/>
<path d="M54 4C40.7392 4 28.0215 9.26784 18.6447 18.6447C9.26784 28.0215 4 40.7392 4 54C4 67.2608 9.26784 79.9785 18.6447 89.3553C28.0215 98.7322 40.7392 104 54 104C67.2608 104 79.9785 98.7322 89.3553 89.3553C98.7322 79.9785 104 67.2608 104 54C104 40.7392 98.7322 28.0215 89.3553 18.6447C79.9785 9.26784 67.2608 4 54 4ZM54 104V4" stroke="black" stroke-width="8" stroke-linecap="round" stroke-linejoin="round"/>
</svg>
