<svg width="90" height="100" viewBox="0 0 90 100" fill="none" xmlns="http://www.w3.org/2000/svg">
<path d="M30 10V5C30 3.67392 30.5268 2.40215 31.4645 1.46447C32.4021 0.526784 33.6739 0 35 0L55 0C56.3261 0 57.5979 0.526784 58.5355 1.46447C59.4732 2.40215 60 3.67392 60 5V10H80C82.6522 10 85.1957 11.0536 87.0711 12.9289C88.9464 14.8043 90 17.3478 90 20V25C90 27.6522 88.9464 30.1957 87.0711 32.0711C85.1957 33.9464 82.6522 35 80 35H79.335L75.935 86C75.6813 89.7964 73.9945 93.3545 71.2159 95.9539C68.4374 98.5533 64.7749 99.9996 60.97 100H29.13C25.3284 99.9999 21.6686 98.5564 18.8905 95.9612C16.1125 93.366 14.4235 89.8128 14.165 86.02L10.685 35H10C7.34784 35 4.8043 33.9464 2.92893 32.0711C1.05357 30.1957 0 27.6522 0 25V20C0 17.3478 1.05357 14.8043 2.92893 12.9289C4.8043 11.0536 7.34784 10 10 10H30ZM80 20H10V25H80V20ZM20.705 35L24.14 85.34C24.2262 86.6046 24.7894 87.7892 25.7158 88.6543C26.6422 89.5194 27.8625 90.0004 29.13 90H60.97C62.2391 90.0002 63.4608 89.5178 64.3874 88.6506C65.3141 87.7835 65.8762 86.5963 65.96 85.33L69.31 35H20.705ZM35 40C36.3261 40 37.5979 40.5268 38.5355 41.4645C39.4732 42.4021 40 43.6739 40 45V80C40 81.3261 39.4732 82.5979 38.5355 83.5355C37.5979 84.4732 36.3261 85 35 85C33.6739 85 32.4021 84.4732 31.4645 83.5355C30.5268 82.5979 30 81.3261 30 80V45C30 43.6739 30.5268 42.4021 31.4645 41.4645C32.4021 40.5268 33.6739 40 35 40ZM55 40C56.3261 40 57.5979 40.5268 58.5355 41.4645C59.4732 42.4021 60 43.6739 60 45V80C60 81.3261 59.4732 82.5979 58.5355 83.5355C57.5979 84.4732 56.3261 85 55 85C53.6739 85 52.4021 84.4732 51.4645 83.5355C50.5268 82.5979 50 81.3261 50 80V45C50 43.6739 50.5268 42.4021 51.4645 41.4645C52.4021 40.5268 53.6739 40 55 40Z" fill="black"/>
</svg>
